<mxfile host="app.diagrams.net" modified="2022-07-27T05:02:35.359Z" agent="5.0 (Macintosh; Intel Mac OS X 10_15_7) AppleWebKit/605.1.15 (KHTML, like Gecko) Version/15.5 Safari/605.1.15" etag="P0b2a9FVtybrL-4qSoWj" version="20.2.1" type="github">
  <diagram id="33tHEcsc2QVpwObFdpOy" name="Page-1">
    <mxGraphModel dx="786" dy="545" grid="1" gridSize="10" guides="1" tooltips="1" connect="1" arrows="1" fold="1" page="1" pageScale="1" pageWidth="850" pageHeight="1100" math="0" shadow="0">
      <root>
        <mxCell id="0" />
        <mxCell id="1" parent="0" />
        <mxCell id="5Kc7H52JkTDlHupmGMQv-1" value="ENTER" style="rounded=0;whiteSpace=wrap;html=1;" vertex="1" parent="1">
          <mxGeometry x="121" y="40" width="80" height="40" as="geometry" />
        </mxCell>
        <mxCell id="5Kc7H52JkTDlHupmGMQv-5" value="0" style="edgeStyle=orthogonalEdgeStyle;rounded=0;orthogonalLoop=1;jettySize=auto;html=1;" edge="1" parent="1" source="5Kc7H52JkTDlHupmGMQv-2" target="5Kc7H52JkTDlHupmGMQv-4">
          <mxGeometry relative="1" as="geometry" />
        </mxCell>
        <mxCell id="5Kc7H52JkTDlHupmGMQv-2" value="START" style="ellipse;whiteSpace=wrap;html=1;aspect=fixed;" vertex="1" parent="1">
          <mxGeometry x="121" y="120" width="80" height="80" as="geometry" />
        </mxCell>
        <mxCell id="5Kc7H52JkTDlHupmGMQv-3" value="" style="endArrow=classic;html=1;rounded=0;exitX=0.5;exitY=1;exitDx=0;exitDy=0;entryX=0.5;entryY=0;entryDx=0;entryDy=0;" edge="1" parent="1" source="5Kc7H52JkTDlHupmGMQv-1" target="5Kc7H52JkTDlHupmGMQv-2">
          <mxGeometry width="50" height="50" relative="1" as="geometry">
            <mxPoint x="161" y="310" as="sourcePoint" />
            <mxPoint x="211" y="260" as="targetPoint" />
          </mxGeometry>
        </mxCell>
        <mxCell id="5Kc7H52JkTDlHupmGMQv-7" value="X or x" style="edgeStyle=orthogonalEdgeStyle;rounded=0;orthogonalLoop=1;jettySize=auto;html=1;" edge="1" parent="1" source="5Kc7H52JkTDlHupmGMQv-4" target="5Kc7H52JkTDlHupmGMQv-6">
          <mxGeometry relative="1" as="geometry" />
        </mxCell>
        <mxCell id="5Kc7H52JkTDlHupmGMQv-4" value="PREFIX_&lt;br&gt;START" style="ellipse;whiteSpace=wrap;html=1;aspect=fixed;" vertex="1" parent="1">
          <mxGeometry x="121" y="240" width="80" height="80" as="geometry" />
        </mxCell>
        <mxCell id="5Kc7H52JkTDlHupmGMQv-9" value="point" style="edgeStyle=orthogonalEdgeStyle;rounded=0;orthogonalLoop=1;jettySize=auto;html=1;" edge="1" parent="1" source="5Kc7H52JkTDlHupmGMQv-6" target="5Kc7H52JkTDlHupmGMQv-8">
          <mxGeometry relative="1" as="geometry" />
        </mxCell>
        <mxCell id="5Kc7H52JkTDlHupmGMQv-11" value="" style="edgeStyle=orthogonalEdgeStyle;rounded=0;orthogonalLoop=1;jettySize=auto;html=1;" edge="1" parent="1" source="5Kc7H52JkTDlHupmGMQv-6" target="5Kc7H52JkTDlHupmGMQv-10">
          <mxGeometry relative="1" as="geometry" />
        </mxCell>
        <mxCell id="5Kc7H52JkTDlHupmGMQv-26" value="Hex Digit" style="edgeLabel;html=1;align=center;verticalAlign=middle;resizable=0;points=[];" vertex="1" connectable="0" parent="5Kc7H52JkTDlHupmGMQv-11">
          <mxGeometry x="-0.05" y="-2" relative="1" as="geometry">
            <mxPoint as="offset" />
          </mxGeometry>
        </mxCell>
        <mxCell id="5Kc7H52JkTDlHupmGMQv-6" value="PREFIX" style="ellipse;whiteSpace=wrap;html=1;aspect=fixed;" vertex="1" parent="1">
          <mxGeometry x="121" y="360" width="80" height="80" as="geometry" />
        </mxCell>
        <mxCell id="5Kc7H52JkTDlHupmGMQv-14" value="" style="edgeStyle=orthogonalEdgeStyle;rounded=0;orthogonalLoop=1;jettySize=auto;html=1;" edge="1" parent="1" source="5Kc7H52JkTDlHupmGMQv-8" target="5Kc7H52JkTDlHupmGMQv-12">
          <mxGeometry relative="1" as="geometry" />
        </mxCell>
        <mxCell id="5Kc7H52JkTDlHupmGMQv-27" value="Hex Digit" style="edgeLabel;html=1;align=center;verticalAlign=middle;resizable=0;points=[];" vertex="1" connectable="0" parent="5Kc7H52JkTDlHupmGMQv-14">
          <mxGeometry x="-0.25" y="3" relative="1" as="geometry">
            <mxPoint as="offset" />
          </mxGeometry>
        </mxCell>
        <mxCell id="5Kc7H52JkTDlHupmGMQv-8" value="NO_&lt;br&gt;WHOLE" style="ellipse;whiteSpace=wrap;html=1;aspect=fixed;" vertex="1" parent="1">
          <mxGeometry x="281" y="360" width="80" height="80" as="geometry" />
        </mxCell>
        <mxCell id="5Kc7H52JkTDlHupmGMQv-13" value="" style="edgeStyle=orthogonalEdgeStyle;rounded=0;orthogonalLoop=1;jettySize=auto;html=1;" edge="1" parent="1" source="5Kc7H52JkTDlHupmGMQv-10" target="5Kc7H52JkTDlHupmGMQv-12">
          <mxGeometry relative="1" as="geometry" />
        </mxCell>
        <mxCell id="5Kc7H52JkTDlHupmGMQv-60" value="point" style="edgeLabel;html=1;align=center;verticalAlign=middle;resizable=0;points=[];" vertex="1" connectable="0" parent="5Kc7H52JkTDlHupmGMQv-13">
          <mxGeometry x="-0.35" y="1" relative="1" as="geometry">
            <mxPoint as="offset" />
          </mxGeometry>
        </mxCell>
        <mxCell id="5Kc7H52JkTDlHupmGMQv-16" value="" style="edgeStyle=orthogonalEdgeStyle;rounded=0;orthogonalLoop=1;jettySize=auto;html=1;entryX=0;entryY=0;entryDx=0;entryDy=0;" edge="1" parent="1" source="5Kc7H52JkTDlHupmGMQv-10" target="5Kc7H52JkTDlHupmGMQv-17">
          <mxGeometry relative="1" as="geometry">
            <Array as="points">
              <mxPoint x="161" y="600" />
              <mxPoint x="213" y="600" />
            </Array>
          </mxGeometry>
        </mxCell>
        <mxCell id="5Kc7H52JkTDlHupmGMQv-28" value="P or p" style="edgeLabel;html=1;align=center;verticalAlign=middle;resizable=0;points=[];" vertex="1" connectable="0" parent="5Kc7H52JkTDlHupmGMQv-16">
          <mxGeometry x="-0.1493" y="2" relative="1" as="geometry">
            <mxPoint as="offset" />
          </mxGeometry>
        </mxCell>
        <mxCell id="5Kc7H52JkTDlHupmGMQv-10" value="WHOLE" style="ellipse;whiteSpace=wrap;html=1;aspect=fixed;" vertex="1" parent="1">
          <mxGeometry x="121" y="480" width="80" height="80" as="geometry" />
        </mxCell>
        <mxCell id="5Kc7H52JkTDlHupmGMQv-18" value="" style="edgeStyle=orthogonalEdgeStyle;rounded=0;orthogonalLoop=1;jettySize=auto;html=1;entryX=1;entryY=0;entryDx=0;entryDy=0;" edge="1" parent="1" source="5Kc7H52JkTDlHupmGMQv-12" target="5Kc7H52JkTDlHupmGMQv-17">
          <mxGeometry relative="1" as="geometry">
            <Array as="points">
              <mxPoint x="321" y="600" />
              <mxPoint x="269" y="600" />
            </Array>
          </mxGeometry>
        </mxCell>
        <mxCell id="5Kc7H52JkTDlHupmGMQv-29" value="P or p" style="edgeLabel;html=1;align=center;verticalAlign=middle;resizable=0;points=[];" vertex="1" connectable="0" parent="5Kc7H52JkTDlHupmGMQv-18">
          <mxGeometry x="-0.233" y="-1" relative="1" as="geometry">
            <mxPoint x="-5" as="offset" />
          </mxGeometry>
        </mxCell>
        <mxCell id="5Kc7H52JkTDlHupmGMQv-12" value="FRACT" style="ellipse;whiteSpace=wrap;html=1;aspect=fixed;" vertex="1" parent="1">
          <mxGeometry x="281" y="480" width="80" height="80" as="geometry" />
        </mxCell>
        <mxCell id="5Kc7H52JkTDlHupmGMQv-15" value="WHOLE" style="ellipse;whiteSpace=wrap;html=1;aspect=fixed;" vertex="1" parent="1">
          <mxGeometry x="201" y="640" width="80" height="80" as="geometry" />
        </mxCell>
        <mxCell id="5Kc7H52JkTDlHupmGMQv-35" value="" style="edgeStyle=orthogonalEdgeStyle;rounded=0;orthogonalLoop=1;jettySize=auto;html=1;" edge="1" parent="1" source="5Kc7H52JkTDlHupmGMQv-17" target="5Kc7H52JkTDlHupmGMQv-34">
          <mxGeometry relative="1" as="geometry" />
        </mxCell>
        <mxCell id="5Kc7H52JkTDlHupmGMQv-37" value="+ or -" style="edgeLabel;html=1;align=center;verticalAlign=middle;resizable=0;points=[];" vertex="1" connectable="0" parent="5Kc7H52JkTDlHupmGMQv-35">
          <mxGeometry x="0.175" relative="1" as="geometry">
            <mxPoint as="offset" />
          </mxGeometry>
        </mxCell>
        <mxCell id="5Kc7H52JkTDlHupmGMQv-41" style="edgeStyle=orthogonalEdgeStyle;rounded=0;orthogonalLoop=1;jettySize=auto;html=1;exitX=1;exitY=1;exitDx=0;exitDy=0;entryX=0;entryY=0;entryDx=0;entryDy=0;" edge="1" parent="1" source="5Kc7H52JkTDlHupmGMQv-17" target="5Kc7H52JkTDlHupmGMQv-38">
          <mxGeometry relative="1" as="geometry">
            <Array as="points">
              <mxPoint x="321" y="708" />
              <mxPoint x="321" y="812" />
            </Array>
          </mxGeometry>
        </mxCell>
        <mxCell id="5Kc7H52JkTDlHupmGMQv-42" value="Digit" style="edgeLabel;html=1;align=center;verticalAlign=middle;resizable=0;points=[];" vertex="1" connectable="0" parent="5Kc7H52JkTDlHupmGMQv-41">
          <mxGeometry x="0.116" y="3" relative="1" as="geometry">
            <mxPoint as="offset" />
          </mxGeometry>
        </mxCell>
        <mxCell id="5Kc7H52JkTDlHupmGMQv-17" value="EXP_&lt;br&gt;START" style="ellipse;whiteSpace=wrap;html=1;aspect=fixed;" vertex="1" parent="1">
          <mxGeometry x="201" y="640" width="80" height="80" as="geometry" />
        </mxCell>
        <mxCell id="5Kc7H52JkTDlHupmGMQv-19" value="FAIL" style="endArrow=classic;html=1;rounded=0;" edge="1" parent="1">
          <mxGeometry x="1" y="14" width="50" height="50" relative="1" as="geometry">
            <mxPoint x="191" y="140" as="sourcePoint" />
            <mxPoint x="241" y="90" as="targetPoint" />
            <mxPoint x="20" as="offset" />
          </mxGeometry>
        </mxCell>
        <mxCell id="5Kc7H52JkTDlHupmGMQv-20" value="FAIL" style="endArrow=classic;html=1;rounded=0;" edge="1" parent="1">
          <mxGeometry x="1" y="14" width="50" height="50" relative="1" as="geometry">
            <mxPoint x="191" y="260" as="sourcePoint" />
            <mxPoint x="241" y="210" as="targetPoint" />
            <mxPoint x="20" as="offset" />
          </mxGeometry>
        </mxCell>
        <mxCell id="5Kc7H52JkTDlHupmGMQv-21" value="FAIL" style="endArrow=classic;html=1;rounded=0;" edge="1" parent="1">
          <mxGeometry x="1" y="14" width="50" height="50" relative="1" as="geometry">
            <mxPoint x="191" y="380" as="sourcePoint" />
            <mxPoint x="241" y="330" as="targetPoint" />
            <mxPoint x="20" as="offset" />
          </mxGeometry>
        </mxCell>
        <mxCell id="5Kc7H52JkTDlHupmGMQv-22" value="FAIL" style="endArrow=classic;html=1;rounded=0;" edge="1" parent="1">
          <mxGeometry x="1" y="14" width="50" height="50" relative="1" as="geometry">
            <mxPoint x="351" y="380" as="sourcePoint" />
            <mxPoint x="401" y="330" as="targetPoint" />
            <mxPoint x="20" as="offset" />
          </mxGeometry>
        </mxCell>
        <mxCell id="5Kc7H52JkTDlHupmGMQv-23" value="FAIL" style="endArrow=classic;html=1;rounded=0;" edge="1" parent="1">
          <mxGeometry x="1" y="14" width="50" height="50" relative="1" as="geometry">
            <mxPoint x="351" y="500" as="sourcePoint" />
            <mxPoint x="401" y="450" as="targetPoint" />
            <mxPoint x="20" as="offset" />
          </mxGeometry>
        </mxCell>
        <mxCell id="5Kc7H52JkTDlHupmGMQv-24" value="FAIL" style="endArrow=classic;html=1;rounded=0;" edge="1" parent="1">
          <mxGeometry x="1" y="14" width="50" height="50" relative="1" as="geometry">
            <mxPoint x="181" y="490" as="sourcePoint" />
            <mxPoint x="231" y="440" as="targetPoint" />
            <mxPoint x="20" as="offset" />
          </mxGeometry>
        </mxCell>
        <mxCell id="5Kc7H52JkTDlHupmGMQv-25" value="FAIL" style="endArrow=classic;html=1;rounded=0;" edge="1" parent="1">
          <mxGeometry x="1" y="14" width="50" height="50" relative="1" as="geometry">
            <mxPoint x="271" y="670" as="sourcePoint" />
            <mxPoint x="321" y="620" as="targetPoint" />
            <mxPoint x="20" as="offset" />
          </mxGeometry>
        </mxCell>
        <mxCell id="5Kc7H52JkTDlHupmGMQv-30" style="edgeStyle=orthogonalEdgeStyle;rounded=0;orthogonalLoop=1;jettySize=auto;html=1;exitX=0;exitY=0.5;exitDx=0;exitDy=0;entryX=0;entryY=1;entryDx=0;entryDy=0;" edge="1" parent="1" source="5Kc7H52JkTDlHupmGMQv-10" target="5Kc7H52JkTDlHupmGMQv-10">
          <mxGeometry relative="1" as="geometry">
            <Array as="points">
              <mxPoint x="81" y="520" />
              <mxPoint x="81" y="548" />
            </Array>
          </mxGeometry>
        </mxCell>
        <mxCell id="5Kc7H52JkTDlHupmGMQv-31" value="Hex Digit" style="edgeLabel;html=1;align=center;verticalAlign=middle;resizable=0;points=[];" vertex="1" connectable="0" parent="5Kc7H52JkTDlHupmGMQv-30">
          <mxGeometry x="-0.1002" y="-1" relative="1" as="geometry">
            <mxPoint as="offset" />
          </mxGeometry>
        </mxCell>
        <mxCell id="5Kc7H52JkTDlHupmGMQv-32" style="edgeStyle=orthogonalEdgeStyle;rounded=0;orthogonalLoop=1;jettySize=auto;html=1;exitX=1;exitY=0.5;exitDx=0;exitDy=0;entryX=1;entryY=1;entryDx=0;entryDy=0;" edge="1" parent="1" source="5Kc7H52JkTDlHupmGMQv-12" target="5Kc7H52JkTDlHupmGMQv-12">
          <mxGeometry relative="1" as="geometry">
            <Array as="points">
              <mxPoint x="401" y="520" />
              <mxPoint x="401" y="548" />
            </Array>
          </mxGeometry>
        </mxCell>
        <mxCell id="5Kc7H52JkTDlHupmGMQv-33" value="Hex Digit" style="edgeLabel;html=1;align=center;verticalAlign=middle;resizable=0;points=[];" vertex="1" connectable="0" parent="5Kc7H52JkTDlHupmGMQv-32">
          <mxGeometry x="-0.1334" y="1" relative="1" as="geometry">
            <mxPoint x="-1" y="8" as="offset" />
          </mxGeometry>
        </mxCell>
        <mxCell id="5Kc7H52JkTDlHupmGMQv-39" value="" style="edgeStyle=orthogonalEdgeStyle;rounded=0;orthogonalLoop=1;jettySize=auto;html=1;" edge="1" parent="1" source="5Kc7H52JkTDlHupmGMQv-34" target="5Kc7H52JkTDlHupmGMQv-38">
          <mxGeometry relative="1" as="geometry" />
        </mxCell>
        <mxCell id="5Kc7H52JkTDlHupmGMQv-40" value="Digit" style="edgeLabel;html=1;align=center;verticalAlign=middle;resizable=0;points=[];" vertex="1" connectable="0" parent="5Kc7H52JkTDlHupmGMQv-39">
          <mxGeometry x="0.075" y="-1" relative="1" as="geometry">
            <mxPoint as="offset" />
          </mxGeometry>
        </mxCell>
        <mxCell id="5Kc7H52JkTDlHupmGMQv-34" value="SIGN" style="ellipse;whiteSpace=wrap;html=1;aspect=fixed;" vertex="1" parent="1">
          <mxGeometry x="361" y="640" width="80" height="80" as="geometry" />
        </mxCell>
        <mxCell id="5Kc7H52JkTDlHupmGMQv-46" value="" style="edgeStyle=orthogonalEdgeStyle;rounded=0;orthogonalLoop=1;jettySize=auto;html=1;" edge="1" parent="1" source="5Kc7H52JkTDlHupmGMQv-38" target="5Kc7H52JkTDlHupmGMQv-45">
          <mxGeometry relative="1" as="geometry" />
        </mxCell>
        <mxCell id="5Kc7H52JkTDlHupmGMQv-61" value="F or f" style="edgeLabel;html=1;align=center;verticalAlign=middle;resizable=0;points=[];" vertex="1" connectable="0" parent="5Kc7H52JkTDlHupmGMQv-46">
          <mxGeometry x="0.1375" y="-1" relative="1" as="geometry">
            <mxPoint as="offset" />
          </mxGeometry>
        </mxCell>
        <mxCell id="5Kc7H52JkTDlHupmGMQv-48" value="" style="edgeStyle=orthogonalEdgeStyle;rounded=0;orthogonalLoop=1;jettySize=auto;html=1;" edge="1" parent="1" source="5Kc7H52JkTDlHupmGMQv-38" target="5Kc7H52JkTDlHupmGMQv-47">
          <mxGeometry relative="1" as="geometry" />
        </mxCell>
        <mxCell id="5Kc7H52JkTDlHupmGMQv-62" value="L or l" style="edgeLabel;html=1;align=center;verticalAlign=middle;resizable=0;points=[];" vertex="1" connectable="0" parent="5Kc7H52JkTDlHupmGMQv-48">
          <mxGeometry x="-0.0375" y="-3" relative="1" as="geometry">
            <mxPoint as="offset" />
          </mxGeometry>
        </mxCell>
        <mxCell id="5Kc7H52JkTDlHupmGMQv-38" value="DOUBLE_&lt;br&gt;TYPE" style="ellipse;whiteSpace=wrap;html=1;aspect=fixed;" vertex="1" parent="1">
          <mxGeometry x="361" y="800" width="80" height="80" as="geometry" />
        </mxCell>
        <mxCell id="5Kc7H52JkTDlHupmGMQv-43" value="Digit" style="edgeStyle=orthogonalEdgeStyle;rounded=0;orthogonalLoop=1;jettySize=auto;html=1;exitX=0;exitY=0.5;exitDx=0;exitDy=0;entryX=0.163;entryY=0.95;entryDx=0;entryDy=0;entryPerimeter=0;" edge="1" parent="1" source="5Kc7H52JkTDlHupmGMQv-38" target="5Kc7H52JkTDlHupmGMQv-38">
          <mxGeometry x="-0.0478" relative="1" as="geometry">
            <Array as="points">
              <mxPoint x="321" y="840" />
              <mxPoint x="321" y="876" />
            </Array>
            <mxPoint as="offset" />
          </mxGeometry>
        </mxCell>
        <mxCell id="5Kc7H52JkTDlHupmGMQv-45" value="FLOAT_&lt;br&gt;TYPE" style="ellipse;whiteSpace=wrap;html=1;aspect=fixed;" vertex="1" parent="1">
          <mxGeometry x="521" y="720" width="80" height="80" as="geometry" />
        </mxCell>
        <mxCell id="5Kc7H52JkTDlHupmGMQv-47" value="LONG_&lt;br&gt;TYPE" style="ellipse;whiteSpace=wrap;html=1;aspect=fixed;" vertex="1" parent="1">
          <mxGeometry x="521" y="880" width="80" height="80" as="geometry" />
        </mxCell>
        <mxCell id="5Kc7H52JkTDlHupmGMQv-49" value="FAIL" style="endArrow=classic;html=1;rounded=0;" edge="1" parent="1">
          <mxGeometry x="1" y="14" width="50" height="50" relative="1" as="geometry">
            <mxPoint x="431" y="660" as="sourcePoint" />
            <mxPoint x="481" y="610" as="targetPoint" />
            <mxPoint x="20" as="offset" />
          </mxGeometry>
        </mxCell>
        <mxCell id="5Kc7H52JkTDlHupmGMQv-50" value="FAIL" style="endArrow=classic;html=1;rounded=0;" edge="1" parent="1">
          <mxGeometry x="1" y="14" width="50" height="50" relative="1" as="geometry">
            <mxPoint x="411" y="810" as="sourcePoint" />
            <mxPoint x="461" y="760" as="targetPoint" />
            <mxPoint x="20" as="offset" />
          </mxGeometry>
        </mxCell>
        <mxCell id="5Kc7H52JkTDlHupmGMQv-51" value="FAIL" style="endArrow=classic;html=1;rounded=0;" edge="1" parent="1">
          <mxGeometry x="1" y="14" width="50" height="50" relative="1" as="geometry">
            <mxPoint x="581" y="730" as="sourcePoint" />
            <mxPoint x="631" y="680" as="targetPoint" />
            <mxPoint x="20" as="offset" />
          </mxGeometry>
        </mxCell>
        <mxCell id="5Kc7H52JkTDlHupmGMQv-52" value="FAIL" style="endArrow=classic;html=1;rounded=0;" edge="1" parent="1">
          <mxGeometry x="1" y="14" width="50" height="50" relative="1" as="geometry">
            <mxPoint x="590" y="920" as="sourcePoint" />
            <mxPoint x="640" y="870" as="targetPoint" />
            <mxPoint x="20" as="offset" />
          </mxGeometry>
        </mxCell>
        <mxCell id="5Kc7H52JkTDlHupmGMQv-71" value="\0" style="endArrow=classic;html=1;rounded=0;exitX=0.5;exitY=1;exitDx=0;exitDy=0;" edge="1" parent="1" source="5Kc7H52JkTDlHupmGMQv-38">
          <mxGeometry width="50" height="50" relative="1" as="geometry">
            <mxPoint x="370" y="850" as="sourcePoint" />
            <mxPoint x="401" y="960" as="targetPoint" />
          </mxGeometry>
        </mxCell>
        <mxCell id="5Kc7H52JkTDlHupmGMQv-72" value="DOUBLE" style="text;html=1;strokeColor=none;fillColor=none;align=center;verticalAlign=middle;whiteSpace=wrap;rounded=0;" vertex="1" parent="1">
          <mxGeometry x="371" y="970" width="60" height="30" as="geometry" />
        </mxCell>
        <mxCell id="5Kc7H52JkTDlHupmGMQv-74" value="L_DOUBLE" style="text;html=1;strokeColor=none;fillColor=none;align=center;verticalAlign=middle;whiteSpace=wrap;rounded=0;" vertex="1" parent="1">
          <mxGeometry x="690" y="905" width="60" height="30" as="geometry" />
        </mxCell>
        <mxCell id="5Kc7H52JkTDlHupmGMQv-75" value="FLOAT" style="text;html=1;strokeColor=none;fillColor=none;align=center;verticalAlign=middle;whiteSpace=wrap;rounded=0;" vertex="1" parent="1">
          <mxGeometry x="680" y="745" width="60" height="30" as="geometry" />
        </mxCell>
        <mxCell id="5Kc7H52JkTDlHupmGMQv-76" value="\0" style="endArrow=classic;html=1;rounded=0;exitX=1;exitY=0.5;exitDx=0;exitDy=0;entryX=0;entryY=0.5;entryDx=0;entryDy=0;" edge="1" parent="1" source="5Kc7H52JkTDlHupmGMQv-47" target="5Kc7H52JkTDlHupmGMQv-74">
          <mxGeometry x="-0.1236" y="10" width="50" height="50" relative="1" as="geometry">
            <mxPoint x="370" y="990" as="sourcePoint" />
            <mxPoint x="670" y="920" as="targetPoint" />
            <mxPoint as="offset" />
          </mxGeometry>
        </mxCell>
        <mxCell id="5Kc7H52JkTDlHupmGMQv-77" value="" style="endArrow=classic;html=1;rounded=0;exitX=1;exitY=0.5;exitDx=0;exitDy=0;entryX=0;entryY=0.5;entryDx=0;entryDy=0;" edge="1" parent="1" source="5Kc7H52JkTDlHupmGMQv-45" target="5Kc7H52JkTDlHupmGMQv-75">
          <mxGeometry width="50" height="50" relative="1" as="geometry">
            <mxPoint x="370" y="990" as="sourcePoint" />
            <mxPoint x="420" y="940" as="targetPoint" />
          </mxGeometry>
        </mxCell>
        <mxCell id="5Kc7H52JkTDlHupmGMQv-78" value="\0" style="edgeLabel;html=1;align=center;verticalAlign=middle;resizable=0;points=[];" vertex="1" connectable="0" parent="5Kc7H52JkTDlHupmGMQv-77">
          <mxGeometry x="-0.2911" y="-2" relative="1" as="geometry">
            <mxPoint x="11" y="-12" as="offset" />
          </mxGeometry>
        </mxCell>
      </root>
    </mxGraphModel>
  </diagram>
</mxfile>
